# xmcd
#
# Track frame offsets:
#	150
#	20338
#	41594
#	63767
#	82641
#	105446
#	120505
#	134227
#	158428
#	176108
#
# Disc length: 2571 seconds
#
# Revision: 1
# Processed by: cddbd v1.5.2PL0 Copyright (c) Steve Scherf et al.
# Submitted via: audiograbber 1.83.01
#
DISCID=710a090a
DTITLE=Downpilot - Live In Stuttgart
DYEAR=2005
DGENRE=Country
TTITLE0=My Time This Time
TTITLE1=Overground
TTITLE2=Everyday Dream Of The West
TTITLE3=Not Detoured
TTITLE4=Sodium
TTITLE5=Mapmaker
TTITLE6=Been Delayed
TTITLE7=Cold Street Light-Blinker
TTITLE8=True
TTITLE9=My Sunshine
EXTD=
EXTT0=
EXTT1=
EXTT2=
EXTT3=
EXTT4=
EXTT5=
EXTT6=
EXTT7=
EXTT8=
EXTT9=
PLAYORDER=
